<?xml version="1.0" standalone="no"?>
<!DOCTYPE svg PUBLIC "-//W3C//DTD SVG 20010904//EN"
 "http://www.w3.org/TR/2001/REC-SVG-20010904/DTD/svg10.dtd">
<svg version="1.0" xmlns="http://www.w3.org/2000/svg"
 width="192.000000pt" height="192.000000pt" viewBox="0 0 192.000000 192.000000"
 preserveAspectRatio="xMidYMid meet">

<g transform="translate(0.000000,192.000000) scale(0.100000,-0.100000)"
fill="#000000" stroke="none">
<path d="M289 1910 c-154 -18 -256 -120 -279 -276 -13 -93 -13 -1159 1 -1244
26 -167 141 -305 304 -365 46 -18 93 -19 592 -23 322 -2 570 1 613 7 174 24
322 147 376 311 17 50 19 109 22 649 2 390 -1 618 -8 663 -25 164 -120 257
-283 278 -85 11 -1242 11 -1338 0z m741 -529 c0 -9 -13 -44 -29 -78 -22 -45
-60 -94 -144 -181 -117 -122 -133 -142 -147 -193 -11 -36 -2 -37 77 -5 33 14
89 30 124 36 55 10 74 9 134 -8 39 -10 94 -28 123 -40 59 -25 62 -20 31 48
-36 80 -110 140 -193 158 l-35 7 28 34 c28 34 30 35 68 23 95 -28 175 -107
214 -212 30 -78 23 -194 -15 -268 -35 -70 -95 -128 -165 -161 -47 -22 -70 -26
-141 -26 -73 0 -93 4 -141 28 -76 37 -150 117 -178 192 -19 49 -22 74 -19 137
7 111 43 179 167 311 96 101 134 159 161 240 l12 39 34 -33 c19 -18 34 -40 34
-48z"/>
<path d="M910 890 c-30 -30 -27 -83 6 -109 34 -27 57 -26 88 2 53 47 25 127
-44 127 -17 0 -39 -9 -50 -20z"/>
<path d="M704 809 c-9 -15 35 -102 69 -138 34 -36 127 -85 139 -73 10 10 -6
75 -29 114 -10 18 -37 45 -59 61 -43 30 -111 51 -120 36z"/>
<path d="M1162 805 c-85 -26 -152 -106 -152 -182 0 -31 0 -31 36 -20 54 16
128 88 153 148 13 28 19 55 14 59 -4 4 -27 2 -51 -5z"/>
</g>
</svg>
