<?xml version="1.0" standalone="no"?>
<!DOCTYPE svg PUBLIC "-//W3C//DTD SVG 20010904//EN"
 "http://www.w3.org/TR/2001/REC-SVG-20010904/DTD/svg10.dtd">
<svg version="1.0" xmlns="http://www.w3.org/2000/svg"
 width="512.000000pt" height="512.000000pt" viewBox="0 0 512.000000 512.000000"
 preserveAspectRatio="xMidYMid meet">

<g transform="translate(0.000000,512.000000) scale(0.100000,-0.100000)"
fill="#000000" stroke="none">
<path d="M1035 5110 c-164 -5 -288 -13 -335 -23 -356 -72 -594 -309 -666 -662
-29 -146 -35 -510 -31 -1915 4 -1511 2 -1459 62 -1650 61 -194 157 -353 300
-495 148 -148 324 -253 519 -309 189 -55 262 -57 1741 -53 990 3 1374 7 1438
16 129 18 247 54 372 115 367 178 606 514 667 941 19 129 19 3117 0 3251 -46
335 -182 544 -442 678 -103 53 -163 72 -306 93 -96 14 -282 16 -1584 18 -811
1 -1592 -1 -1735 -5z m1706 -1472 c-33 -103 -131 -290 -197 -378 -31 -41 -163
-183 -293 -315 -232 -234 -291 -306 -331 -399 -29 -69 -50 -156 -38 -156 6 0
86 29 177 64 272 105 339 121 511 120 139 0 150 -2 264 -37 65 -21 180 -62
257 -92 76 -30 143 -55 149 -55 20 0 -18 129 -66 220 -104 199 -300 339 -518
371 -82 12 -86 19 -36 64 12 11 42 48 66 82 49 68 41 66 154 31 242 -77 438
-252 551 -494 63 -134 83 -225 83 -389 0 -179 -30 -298 -110 -443 -226 -404
-725 -583 -1143 -409 -162 67 -354 229 -439 370 -50 82 -99 202 -118 287 -27
119 -23 301 10 424 58 222 160 375 453 677 104 107 210 226 236 266 63 94 128
236 162 348 14 50 28 96 31 104 3 9 41 -22 106 -87 l102 -101 -23 -73z"/>
<path d="M2511 2418 c-56 -13 -127 -81 -137 -133 -26 -138 56 -248 185 -248
62 0 103 17 142 60 41 43 52 73 52 133 0 60 -11 90 -52 133 -49 54 -113 72
-190 55z"/>
<path d="M1876 2143 c32 -147 88 -247 199 -358 68 -69 109 -101 170 -132 65
-33 170 -73 193 -73 3 0 2 31 -2 70 -17 192 -140 372 -308 454 -79 39 -172 66
-225 66 -31 0 -33 -2 -27 -27z"/>
<path d="M3155 2163 c-204 -45 -365 -182 -433 -366 -24 -63 -47 -191 -38 -206
4 -6 26 -4 59 6 190 55 356 194 441 367 28 58 66 173 66 200 0 7 -64 6 -95 -1z"/>
</g>
</svg>
